<mxfile host="app.diagrams.net" modified="2024-06-24T03:02:35.637Z" agent="Mozilla/5.0 (Macintosh; Intel Mac OS X 10_15_7) AppleWebKit/537.36 (KHTML, like Gecko) Chrome/126.0.0.0 Safari/537.36" etag="1gdjte9gWOLNBF42k2f1" version="24.5.5" type="github">
  <diagram name="第 1 页" id="cWLUFu91GnXHYuWN9KVA">
    <mxGraphModel dx="1766" dy="819" grid="1" gridSize="10" guides="1" tooltips="1" connect="1" arrows="1" fold="1" page="1" pageScale="1" pageWidth="827" pageHeight="1169" math="0" shadow="0">
      <root>
        <mxCell id="0" />
        <mxCell id="1" parent="0" />
        <mxCell id="BSTx3Z08uQ0iYCxuaf0S-5" value="采购：新建采购单" style="rounded=1;whiteSpace=wrap;html=1;absoluteArcSize=1;arcSize=14;strokeWidth=2;" vertex="1" parent="1">
          <mxGeometry x="90" y="60" width="170" height="70" as="geometry" />
        </mxCell>
        <mxCell id="BSTx3Z08uQ0iYCxuaf0S-12" style="edgeStyle=orthogonalEdgeStyle;rounded=0;orthogonalLoop=1;jettySize=auto;html=1;exitX=0.5;exitY=1;exitDx=0;exitDy=0;entryX=0.5;entryY=0;entryDx=0;entryDy=0;" edge="1" parent="1" source="BSTx3Z08uQ0iYCxuaf0S-8" target="BSTx3Z08uQ0iYCxuaf0S-11">
          <mxGeometry relative="1" as="geometry" />
        </mxCell>
        <mxCell id="BSTx3Z08uQ0iYCxuaf0S-8" value="输入必要数据：&lt;div&gt;1、合同编号&lt;/div&gt;&lt;div&gt;2、物料编码&lt;/div&gt;&lt;div&gt;3、计划数&lt;/div&gt;" style="shape=parallelogram;html=1;strokeWidth=2;perimeter=parallelogramPerimeter;whiteSpace=wrap;rounded=1;arcSize=12;size=0.23;align=center;" vertex="1" parent="1">
          <mxGeometry x="70" y="200" width="180" height="60" as="geometry" />
        </mxCell>
        <mxCell id="BSTx3Z08uQ0iYCxuaf0S-10" style="edgeStyle=orthogonalEdgeStyle;rounded=0;orthogonalLoop=1;jettySize=auto;html=1;exitX=0.5;exitY=1;exitDx=0;exitDy=0;entryX=0.583;entryY=-0.017;entryDx=0;entryDy=0;entryPerimeter=0;" edge="1" parent="1" source="BSTx3Z08uQ0iYCxuaf0S-5" target="BSTx3Z08uQ0iYCxuaf0S-8">
          <mxGeometry relative="1" as="geometry" />
        </mxCell>
        <mxCell id="BSTx3Z08uQ0iYCxuaf0S-35" style="edgeStyle=orthogonalEdgeStyle;rounded=0;orthogonalLoop=1;jettySize=auto;html=1;exitX=1;exitY=0.5;exitDx=0;exitDy=0;entryX=0;entryY=0.5;entryDx=0;entryDy=0;" edge="1" parent="1" source="BSTx3Z08uQ0iYCxuaf0S-11" target="BSTx3Z08uQ0iYCxuaf0S-13">
          <mxGeometry relative="1" as="geometry" />
        </mxCell>
        <mxCell id="BSTx3Z08uQ0iYCxuaf0S-11" value="生成采购单&lt;div&gt;（唯一索引为：合同编号）&lt;/div&gt;" style="rounded=1;whiteSpace=wrap;html=1;absoluteArcSize=1;arcSize=14;strokeWidth=2;" vertex="1" parent="1">
          <mxGeometry x="65" y="330" width="190" height="60" as="geometry" />
        </mxCell>
        <mxCell id="BSTx3Z08uQ0iYCxuaf0S-20" style="edgeStyle=orthogonalEdgeStyle;rounded=0;orthogonalLoop=1;jettySize=auto;html=1;exitX=0.5;exitY=1;exitDx=0;exitDy=0;entryX=0.5;entryY=0;entryDx=0;entryDy=0;" edge="1" parent="1" source="BSTx3Z08uQ0iYCxuaf0S-13" target="BSTx3Z08uQ0iYCxuaf0S-15">
          <mxGeometry relative="1" as="geometry" />
        </mxCell>
        <mxCell id="BSTx3Z08uQ0iYCxuaf0S-13" value="采购：新建入库单" style="rounded=1;whiteSpace=wrap;html=1;absoluteArcSize=1;arcSize=14;strokeWidth=2;" vertex="1" parent="1">
          <mxGeometry x="365" y="60" width="150" height="50" as="geometry" />
        </mxCell>
        <mxCell id="BSTx3Z08uQ0iYCxuaf0S-21" style="edgeStyle=orthogonalEdgeStyle;rounded=0;orthogonalLoop=1;jettySize=auto;html=1;exitX=0.5;exitY=1;exitDx=0;exitDy=0;" edge="1" parent="1" source="BSTx3Z08uQ0iYCxuaf0S-15" target="BSTx3Z08uQ0iYCxuaf0S-17">
          <mxGeometry relative="1" as="geometry" />
        </mxCell>
        <mxCell id="BSTx3Z08uQ0iYCxuaf0S-15" value="选择合同编号" style="rounded=1;whiteSpace=wrap;html=1;absoluteArcSize=1;arcSize=14;strokeWidth=2;" vertex="1" parent="1">
          <mxGeometry x="365" y="150" width="150" height="50" as="geometry" />
        </mxCell>
        <mxCell id="BSTx3Z08uQ0iYCxuaf0S-19" value="" style="edgeStyle=orthogonalEdgeStyle;rounded=0;orthogonalLoop=1;jettySize=auto;html=1;" edge="1" parent="1" source="BSTx3Z08uQ0iYCxuaf0S-17" target="BSTx3Z08uQ0iYCxuaf0S-18">
          <mxGeometry relative="1" as="geometry" />
        </mxCell>
        <mxCell id="BSTx3Z08uQ0iYCxuaf0S-17" value="录入物料编码" style="shape=parallelogram;html=1;strokeWidth=2;perimeter=parallelogramPerimeter;whiteSpace=wrap;rounded=1;arcSize=12;size=0.23;" vertex="1" parent="1">
          <mxGeometry x="360" y="230" width="160" height="50" as="geometry" />
        </mxCell>
        <mxCell id="BSTx3Z08uQ0iYCxuaf0S-23" style="edgeStyle=orthogonalEdgeStyle;rounded=0;orthogonalLoop=1;jettySize=auto;html=1;exitX=0.5;exitY=1;exitDx=0;exitDy=0;entryX=0.5;entryY=0;entryDx=0;entryDy=0;" edge="1" parent="1" source="BSTx3Z08uQ0iYCxuaf0S-18" target="BSTx3Z08uQ0iYCxuaf0S-22">
          <mxGeometry relative="1" as="geometry" />
        </mxCell>
        <mxCell id="BSTx3Z08uQ0iYCxuaf0S-18" value="&lt;div&gt;输入应收数&lt;/div&gt;" style="shape=parallelogram;html=1;strokeWidth=2;perimeter=parallelogramPerimeter;whiteSpace=wrap;rounded=1;arcSize=12;size=0.23;" vertex="1" parent="1">
          <mxGeometry x="360" y="320" width="160" height="50" as="geometry" />
        </mxCell>
        <mxCell id="BSTx3Z08uQ0iYCxuaf0S-42" style="edgeStyle=orthogonalEdgeStyle;rounded=0;orthogonalLoop=1;jettySize=auto;html=1;exitX=0.5;exitY=1;exitDx=0;exitDy=0;entryX=0.5;entryY=0;entryDx=0;entryDy=0;" edge="1" parent="1" source="BSTx3Z08uQ0iYCxuaf0S-22" target="BSTx3Z08uQ0iYCxuaf0S-24">
          <mxGeometry relative="1" as="geometry" />
        </mxCell>
        <mxCell id="BSTx3Z08uQ0iYCxuaf0S-22" value="入库单生成成功" style="rounded=1;whiteSpace=wrap;html=1;absoluteArcSize=1;arcSize=14;strokeWidth=2;" vertex="1" parent="1">
          <mxGeometry x="365" y="420" width="150" height="50" as="geometry" />
        </mxCell>
        <mxCell id="BSTx3Z08uQ0iYCxuaf0S-27" style="edgeStyle=orthogonalEdgeStyle;rounded=0;orthogonalLoop=1;jettySize=auto;html=1;exitX=0.5;exitY=1;exitDx=0;exitDy=0;entryX=0.5;entryY=0;entryDx=0;entryDy=0;" edge="1" parent="1" source="BSTx3Z08uQ0iYCxuaf0S-24" target="BSTx3Z08uQ0iYCxuaf0S-37">
          <mxGeometry relative="1" as="geometry" />
        </mxCell>
        <mxCell id="BSTx3Z08uQ0iYCxuaf0S-24" value="仓库：编辑入库单" style="rounded=1;whiteSpace=wrap;html=1;absoluteArcSize=1;arcSize=14;strokeWidth=2;" vertex="1" parent="1">
          <mxGeometry x="665" y="60" width="140" height="50" as="geometry" />
        </mxCell>
        <mxCell id="BSTx3Z08uQ0iYCxuaf0S-30" style="edgeStyle=orthogonalEdgeStyle;rounded=0;orthogonalLoop=1;jettySize=auto;html=1;exitX=0.5;exitY=1;exitDx=0;exitDy=0;entryX=0.5;entryY=0;entryDx=0;entryDy=0;entryPerimeter=0;" edge="1" parent="1" source="BSTx3Z08uQ0iYCxuaf0S-26" target="BSTx3Z08uQ0iYCxuaf0S-28">
          <mxGeometry relative="1" as="geometry">
            <mxPoint x="600" y="500" as="targetPoint" />
          </mxGeometry>
        </mxCell>
        <mxCell id="BSTx3Z08uQ0iYCxuaf0S-26" value="输入实收数" style="shape=parallelogram;html=1;strokeWidth=2;perimeter=parallelogramPerimeter;whiteSpace=wrap;rounded=1;arcSize=12;size=0.23;" vertex="1" parent="1">
          <mxGeometry x="660" y="320" width="150" height="50" as="geometry" />
        </mxCell>
        <mxCell id="BSTx3Z08uQ0iYCxuaf0S-34" style="edgeStyle=orthogonalEdgeStyle;rounded=0;orthogonalLoop=1;jettySize=auto;html=1;entryX=0.5;entryY=0;entryDx=0;entryDy=0;" edge="1" parent="1" source="BSTx3Z08uQ0iYCxuaf0S-28" target="BSTx3Z08uQ0iYCxuaf0S-31">
          <mxGeometry relative="1" as="geometry" />
        </mxCell>
        <mxCell id="BSTx3Z08uQ0iYCxuaf0S-40" style="edgeStyle=orthogonalEdgeStyle;rounded=0;orthogonalLoop=1;jettySize=auto;html=1;exitX=0;exitY=0.5;exitDx=0;exitDy=0;exitPerimeter=0;entryX=0.5;entryY=0;entryDx=0;entryDy=0;" edge="1" parent="1" source="BSTx3Z08uQ0iYCxuaf0S-28" target="BSTx3Z08uQ0iYCxuaf0S-39">
          <mxGeometry relative="1" as="geometry" />
        </mxCell>
        <mxCell id="BSTx3Z08uQ0iYCxuaf0S-28" value="比对应收数与实收数差异" style="strokeWidth=2;html=1;shape=mxgraph.flowchart.decision;whiteSpace=wrap;" vertex="1" parent="1">
          <mxGeometry x="530" y="585" width="160" height="80" as="geometry" />
        </mxCell>
        <mxCell id="BSTx3Z08uQ0iYCxuaf0S-33" value="" style="edgeStyle=orthogonalEdgeStyle;rounded=0;orthogonalLoop=1;jettySize=auto;html=1;" edge="1" parent="1" source="BSTx3Z08uQ0iYCxuaf0S-31" target="BSTx3Z08uQ0iYCxuaf0S-32">
          <mxGeometry relative="1" as="geometry" />
        </mxCell>
        <mxCell id="BSTx3Z08uQ0iYCxuaf0S-31" value="核对异常" style="rounded=1;whiteSpace=wrap;html=1;absoluteArcSize=1;arcSize=14;strokeWidth=2;" vertex="1" parent="1">
          <mxGeometry x="560" y="710" width="100" height="50" as="geometry" />
        </mxCell>
        <mxCell id="BSTx3Z08uQ0iYCxuaf0S-32" value="反馈问题" style="rounded=1;whiteSpace=wrap;html=1;absoluteArcSize=1;arcSize=14;strokeWidth=2;" vertex="1" parent="1">
          <mxGeometry x="560" y="810" width="100" height="50" as="geometry" />
        </mxCell>
        <mxCell id="BSTx3Z08uQ0iYCxuaf0S-38" style="edgeStyle=orthogonalEdgeStyle;rounded=0;orthogonalLoop=1;jettySize=auto;html=1;exitX=0.5;exitY=1;exitDx=0;exitDy=0;entryX=0.5;entryY=0;entryDx=0;entryDy=0;" edge="1" parent="1" source="BSTx3Z08uQ0iYCxuaf0S-37" target="BSTx3Z08uQ0iYCxuaf0S-26">
          <mxGeometry relative="1" as="geometry" />
        </mxCell>
        <mxCell id="BSTx3Z08uQ0iYCxuaf0S-37" value="输入：入库编号" style="shape=parallelogram;html=1;strokeWidth=2;perimeter=parallelogramPerimeter;whiteSpace=wrap;rounded=1;arcSize=12;size=0.23;" vertex="1" parent="1">
          <mxGeometry x="667.5" y="180" width="135" height="60" as="geometry" />
        </mxCell>
        <mxCell id="BSTx3Z08uQ0iYCxuaf0S-39" value="仓库：入库单审核通过" style="rounded=1;whiteSpace=wrap;html=1;absoluteArcSize=1;arcSize=14;strokeWidth=2;" vertex="1" parent="1">
          <mxGeometry x="360" y="710" width="140" height="70" as="geometry" />
        </mxCell>
        <mxCell id="BSTx3Z08uQ0iYCxuaf0S-41" style="edgeStyle=orthogonalEdgeStyle;rounded=0;orthogonalLoop=1;jettySize=auto;html=1;exitX=0.5;exitY=1;exitDx=0;exitDy=0;entryX=0.55;entryY=1.057;entryDx=0;entryDy=0;entryPerimeter=0;" edge="1" parent="1" source="BSTx3Z08uQ0iYCxuaf0S-32" target="BSTx3Z08uQ0iYCxuaf0S-39">
          <mxGeometry relative="1" as="geometry" />
        </mxCell>
      </root>
    </mxGraphModel>
  </diagram>
</mxfile>
